REM DIRINDEX 1\3,1\2\4,1\2\5,1\2\6
REM DIRNAME folder01,folder02,folder03,folder04,folder05,folder06
TITLE ""
FILE "031.mp3" MP3
  TRACK 01 AUDIO
    TITLE "4:cjc137_1263"
    INDEX 01 00:00:00
  TRACK 02 AUDIO
    TITLE "0:"
    INDEX 01 00:01:05
  TRACK 03 AUDIO
    TITLE "6:cjc137_1264"
    INDEX 01 00:01:11
  TRACK 04 AUDIO
    TITLE "0:"
    INDEX 01 00:02:10
  TRACK 05 AUDIO
    TITLE "5:cjc137_1265"
    INDEX 01 00:02:16
  TRACK 06 AUDIO
    TITLE "0:"
    INDEX 01 00:03:19
  TRACK 07 AUDIO
    TITLE "4:cjc137_1266"
    INDEX 01 00:04:27
  TRACK 08 AUDIO
    TITLE "0:"
    INDEX 01 00:05:65
  TRACK 09 AUDIO
    TITLE "6:cjc137_1267"
    INDEX 01 00:05:73
  TRACK 10 AUDIO
    TITLE "0:"
    INDEX 01 00:07:15
  TRACK 11 AUDIO
    TITLE "5:cjc137_1268"
    INDEX 01 00:07:23
  TRACK 12 AUDIO
    TITLE "0:"
    INDEX 01 00:08:60
  TRACK 13 AUDIO
    TITLE "4:cjc137_1269"
    INDEX 01 00:09:69
  TRACK 14 AUDIO
    TITLE "0:"
    INDEX 01 00:11:25
  TRACK 15 AUDIO
    TITLE "6:cjc137_1270"
    INDEX 01 00:11:31
  TRACK 16 AUDIO
    TITLE "0:"
    INDEX 01 00:12:32
  TRACK 17 AUDIO
    TITLE "5:cjc137_1271"
    INDEX 01 00:12:38
  TRACK 18 AUDIO
    TITLE "0:"
    INDEX 01 00:13:67
  TRACK 19 AUDIO
    TITLE "4:cjc137_1272"
    INDEX 01 00:15:01
  TRACK 20 AUDIO
    TITLE "0:"
    INDEX 01 00:16:10
  TRACK 21 AUDIO
    TITLE "6:cjc137_1273"
    INDEX 01 00:16:18
  TRACK 22 AUDIO
    TITLE "0:"
    INDEX 01 00:17:04
  TRACK 23 AUDIO
    TITLE "5:cjc137_1274"
    INDEX 01 00:17:10
  TRACK 24 AUDIO
    TITLE "0:"
    INDEX 01 00:18:17
  TRACK 25 AUDIO
    TITLE "4:cjc137_1275"
    INDEX 01 00:19:24
  TRACK 26 AUDIO
    TITLE "0:"
    INDEX 01 00:20:32
  TRACK 27 AUDIO
    TITLE "6:cjc137_1276"
    INDEX 01 00:20:39
  TRACK 28 AUDIO
    TITLE "0:"
    INDEX 01 00:21:53
  TRACK 29 AUDIO
    TITLE "5:cjc137_1277"
    INDEX 01 00:21:60
  TRACK 30 AUDIO
    TITLE "0:"
    INDEX 01 00:22:68
  TRACK 31 AUDIO
    TITLE "4:cjc137_1278"
    INDEX 01 00:24:00
  TRACK 32 AUDIO
    TITLE "0:"
    INDEX 01 00:25:03
  TRACK 33 AUDIO
    TITLE "6:cjc137_1279"
    INDEX 01 00:25:13
  TRACK 34 AUDIO
    TITLE "0:"
    INDEX 01 00:26:11
  TRACK 35 AUDIO
    TITLE "5:cjc137_1280"
    INDEX 01 00:26:20
  TRACK 36 AUDIO
    TITLE "0:"
    INDEX 01 00:27:24
  TRACK 37 AUDIO
    TITLE "4:cjc137_1281"
    INDEX 01 00:28:31
  TRACK 38 AUDIO
    TITLE "0:"
    INDEX 01 00:29:34
  TRACK 39 AUDIO
    TITLE "6:cjc137_1282"
    INDEX 01 00:29:42
  TRACK 40 AUDIO
    TITLE "0:"
    INDEX 01 00:30:32
  TRACK 41 AUDIO
    TITLE "5:cjc137_1283"
    INDEX 01 00:30:40
  TRACK 42 AUDIO
    TITLE "0:"
    INDEX 01 00:31:41
  TRACK 43 AUDIO
    TITLE "4:cjc137_1284"
    INDEX 01 00:32:50
  TRACK 44 AUDIO
    TITLE "0:"
    INDEX 01 00:33:64
  TRACK 45 AUDIO
    TITLE "6:cjc137_1285"
    INDEX 01 00:33:73
  TRACK 46 AUDIO
    TITLE "0:"
    INDEX 01 00:35:00
  TRACK 47 AUDIO
    TITLE "5:cjc137_1286"
    INDEX 01 00:35:08
  TRACK 48 AUDIO
    TITLE "0:"
    INDEX 01 00:36:21
  TRACK 49 AUDIO
    TITLE "4:cjc137_1287"
    INDEX 01 00:37:30
  TRACK 50 AUDIO
    TITLE "0:"
    INDEX 01 00:38:43
  TRACK 51 AUDIO
    TITLE "6:cjc137_1288"
    INDEX 01 00:38:47
  TRACK 52 AUDIO
    TITLE "0:"
    INDEX 01 00:40:05
  TRACK 53 AUDIO
    TITLE "5:cjc137_1289"
    INDEX 01 00:40:11
  TRACK 54 AUDIO
    TITLE "0:"
    INDEX 01 00:41:24
  TRACK 55 AUDIO
    TITLE "4:cjc137_1290"
    INDEX 01 00:42:29
  TRACK 56 AUDIO
    TITLE "0:"
    INDEX 01 00:43:33
  TRACK 57 AUDIO
    TITLE "6:cjc137_1291"
    INDEX 01 00:43:42
  TRACK 58 AUDIO
    TITLE "0:"
    INDEX 01 00:44:42
  TRACK 59 AUDIO
    TITLE "5:cjc137_1292"
    INDEX 01 00:44:48
  TRACK 60 AUDIO
    TITLE "0:"
    INDEX 01 00:45:53
  TRACK 61 AUDIO
    TITLE "4:cjc137_1293"
    INDEX 01 00:46:60
  TRACK 62 AUDIO
    TITLE "0:"
    INDEX 01 00:47:68
  TRACK 63 AUDIO
    TITLE "6:cjc137_1294"
    INDEX 01 00:48:00
  TRACK 64 AUDIO
    TITLE "0:"
    INDEX 01 00:49:31
  TRACK 65 AUDIO
    TITLE "5:cjc137_1295"
    INDEX 01 00:49:37
  TRACK 66 AUDIO
    TITLE "0:"
    INDEX 01 00:50:46
  TRACK 67 AUDIO
    TITLE "4:cjc137_1296"
    INDEX 01 00:51:52
  TRACK 68 AUDIO
    TITLE "0:"
    INDEX 01 00:52:63
  TRACK 69 AUDIO
    TITLE "6:cjc137_1297"
    INDEX 01 00:52:69
  TRACK 70 AUDIO
    TITLE "0:"
    INDEX 01 00:54:03
  TRACK 71 AUDIO
    TITLE "5:cjc137_1298"
    INDEX 01 00:54:07
  TRACK 72 AUDIO
    TITLE "0:"
    INDEX 01 00:55:18
  TRACK 73 AUDIO
    TITLE "4:cjc137_1299"
    INDEX 01 00:56:24
  TRACK 74 AUDIO
    TITLE "0:"
    INDEX 01 00:57:27
  TRACK 75 AUDIO
    TITLE "6:cjc137_1300"
    INDEX 01 00:57:37
  TRACK 76 AUDIO
    TITLE "0:"
    INDEX 01 00:58:32
  TRACK 77 AUDIO
    TITLE "5:cjc137_1301"
    INDEX 01 00:58:38
  TRACK 78 AUDIO
    TITLE "0:"
    INDEX 01 00:59:43
  TRACK 79 AUDIO
    TITLE "4:cjc137_1302"
    INDEX 01 01:00:51
  TRACK 80 AUDIO
    TITLE "0:"
    INDEX 01 01:01:72
  TRACK 81 AUDIO
    TITLE "6:cjc137_1303"
    INDEX 01 01:02:06
  TRACK 82 AUDIO
    TITLE "0:"
    INDEX 01 01:02:69
  TRACK 83 AUDIO
    TITLE "5:cjc137_1304"
    INDEX 01 01:03:00
  TRACK 84 AUDIO
    TITLE "0:"
    INDEX 01 01:04:23
